<?xml version='1.0' encoding='iso-8859-1'?>
<svg version="1.1" xmlns="http://www.w3.org/2000/svg" viewBox="0 0 58.932 58.932" xmlns:xlink="http://www.w3.org/1999/xlink" enable-background="new 0 0 58.932 58.932">
  <g>
    <g>
      <path d="m51.11,3.427c0.099,0.339-0.114,0.575-0.381,0.843l-.997,.996 3.114,3.114 .996-.996c0.268-0.267 0.504-0.481 0.843-0.382l-3.575-3.575zm-46.516,48.272c-0.363,0.416-0.843,0.591-1.259,0.228l-.01,.012 4.518,3.948 .01-.012c-0.416-0.363-0.306-0.862 0.057-1.278l1.012-1.158-3.316-2.898-1.012,1.158z"/>
    </g>
  </g>
  <g>
    <g>
      <path d="m47.02,35.953c0-0.553-0.454-1-1.015-1-0.387,0-0.712,0.221-0.883,0.534l-.006-.003c-1.243,1.562-2.766,3.558-4.254,5.025-5.775,5.691-12.427,9.606-18.828,11.415l.003,.028h-0.003c-0.56,0-1.015,0.447-1.015,1 0,0.553 0.454,1 1.015,1l.417-.094c6.839-1.848 13.765-5.942 19.845-11.935 1.929-1.901 3.889-4.348 4.558-5.408l-.024-.015c0.111-0.159 0.19-0.34 0.19-0.547z"/>
    </g>
  </g>
  <g>
    <g>
      <path d="m49.945,6.146c0.143-0.703 0.857-1.387 0.857-1.401 0.017-0.015 0.037-0.019 0.053-0.035 0.386-0.387 0.386-1.015 0-1.401l.009-.009c-0.065-0.044-0.135-0.076-0.2-0.119-0.054-0.032-0.103-0.073-0.161-0.095-9.753-6.273-25.387-2.892-37.586,9.332-12.658,12.682-16.48,29.714-9.308,39.458l.02-.02c0.386,0.387 1.012,0.387 1.398,0 0.098-0.099 0.171-0.213 0.219-0.335l.028,.014c8.852-25.345 36.101-20.966 44.671-45.389zm-45.659,43.079c-5.255-9.144-1.326-24.029 10.008-35.386 11.222-11.244 25.374-14.682 34.399-9.527-0.061,0.135-0.115,0.276-0.147,0.433-8.415,23.981-35.103,20.234-44.26,44.48zm50.813-41.937l-.028,.027c-0.314-0.313-0.78-0.359-1.153-0.163-0.043-0.026-0.122,0.029-0.23,0.153-0.005,0.004-0.011,0.006-0.016,0.01-0.017,0.018-0.022,0.04-0.038,0.058-0.276,0.345-0.663,1.004-0.893,1.577-8.522,24.287-35.948,20.271-44.762,45.561-0.007,0.007-0.017,0.009-0.024,0.016-0.386,0.388-0.386,1.015 0,1.402 0.126,0.126 0.281,0.196 0.442,0.239 9.879,6.008 25.959,2.036 38.086-10.115 12.656-12.682 15.866-29.101 8.616-38.765zm-10.035,37.383c-11.271,11.295-26.017,15.234-35.154,10.096 9.181-24.171 35.823-20.457 44.232-44.416 0.043-0.212 0.103-0.42 0.173-0.625 5.538,9.017 2.165,23.506-9.251,34.945z"/>
    </g>
  </g>
</svg>
